<svg width="1200" height="420" viewBox="0 0 1200 420" xmlns="http://www.w3.org/2000/svg">
  <defs>
    <linearGradient id="bg-pop" x1="0" y1="0" x2="1200" y2="420" gradientUnits="userSpaceOnUse">
      <stop offset="0" stop-color="#080C1A"/>
      <stop offset="1" stop-color="#111A31"/>
    </linearGradient>
    <linearGradient id="line-pop" x1="60" y1="0" x2="1080" y2="0" gradientUnits="userSpaceOnUse">
      <stop offset="0" stop-color="#22D3EE" stop-opacity="0.45"/>
      <stop offset="1" stop-color="#22D3EE"/>
    </linearGradient>
    <filter id="glow-pop" x="-50%" y="-50%" width="200%" height="200%">
      <feGaussianBlur stdDeviation="3" result="blur"/>
      <feMerge>
        <feMergeNode in="blur"/>
        <feMergeNode in="SourceGraphic"/>
      </feMerge>
    </filter>
  </defs>

  <rect x="0" y="0" width="1200" height="420" fill="url(#bg-pop)"/>
  <rect x="42" y="44" width="1116" height="332" rx="16" fill="#0A1224" stroke="#334155" stroke-opacity="0.55"/>

  <g stroke="#334155" stroke-opacity="0.45">
    <line x1="80" y1="84" x2="1080" y2="84"/>
    <line x1="80" y1="132" x2="1080" y2="132"/>
    <line x1="80" y1="180" x2="1080" y2="180"/>
    <line x1="80" y1="228" x2="1080" y2="228"/>
    <line x1="80" y1="276" x2="1080" y2="276"/>
  </g>

  <g stroke="#334155" stroke-opacity="0.3">
    <line x1="80" y1="72" x2="80" y2="320"/>
    <line x1="170" y1="72" x2="170" y2="320"/>
    <line x1="280" y1="72" x2="280" y2="320"/>
    <line x1="390" y1="72" x2="390" y2="320"/>
    <line x1="500" y1="72" x2="500" y2="320"/>
    <line x1="610" y1="72" x2="610" y2="320"/>
    <line x1="720" y1="72" x2="720" y2="320"/>
    <line x1="830" y1="72" x2="830" y2="320"/>
    <line x1="1040" y1="72" x2="1040" y2="320"/>
  </g>

  <line x1="80" y1="180" x2="1080" y2="180" stroke="#22D3EE" stroke-opacity="0.65" stroke-dasharray="6 6"/>

  <polyline
    points="80,268 170,248 260,230 350,188 440,150 530,132 620,148 710,178 800,166 890,140 980,122 1070,146"
    fill="none"
    stroke="url(#line-pop)"
    stroke-width="6"
    stroke-linecap="round"
    stroke-linejoin="round"
    filter="url(#glow-pop)"
  />

  <circle cx="530" cy="132" r="7" fill="#22D3EE" stroke="#E2E8F0" stroke-width="1.5"/>
  <circle cx="980" cy="122" r="7" fill="#22D3EE" stroke="#E2E8F0" stroke-width="1.5"/>

  <text x="548" y="122" fill="#E2E8F0" font-size="14" font-weight="700">1.5kHz +4.0dB</text>
  <text x="998" y="112" fill="#E2E8F0" font-size="14" font-weight="700">8kHz +2.5dB</text>

  <text x="84" y="30" fill="#22D3EE" font-size="24" font-weight="800">POP EQ PROFILE</text>
  <text x="84" y="52" fill="#A5F3FC" font-size="14">Vocal Presence + Air</text>

  <g fill="#94A3B8" font-size="12">
    <text x="18" y="88">+6dB</text>
    <text x="18" y="136">+3dB</text>
    <text x="26" y="184">0dB</text>
    <text x="18" y="232">-3dB</text>
    <text x="18" y="280">-6dB</text>
  </g>

  <g fill="#94A3B8" font-size="12">
    <text x="72" y="342">60</text>
    <text x="161" y="342">120</text>
    <text x="272" y="342">250</text>
    <text x="384" y="342">500</text>
    <text x="492" y="342">1k</text>
    <text x="603" y="342">2k</text>
    <text x="714" y="342">4k</text>
    <text x="824" y="342">8k</text>
    <text x="1028" y="342">16k</text>
  </g>
</svg>
