<svg width="1200" height="420" viewBox="0 0 1200 420" xmlns="http://www.w3.org/2000/svg">
  <defs>
    <linearGradient id="bg-trap" x1="0" y1="0" x2="1200" y2="420" gradientUnits="userSpaceOnUse">
      <stop offset="0" stop-color="#180609"/>
      <stop offset="1" stop-color="#2C0D13"/>
    </linearGradient>
    <linearGradient id="line-trap" x1="60" y1="0" x2="1080" y2="0" gradientUnits="userSpaceOnUse">
      <stop offset="0" stop-color="#F87171" stop-opacity="0.55"/>
      <stop offset="1" stop-color="#EF4444"/>
    </linearGradient>
    <filter id="glow-trap" x="-50%" y="-50%" width="200%" height="200%">
      <feGaussianBlur stdDeviation="3" result="blur"/>
      <feMerge>
        <feMergeNode in="blur"/>
        <feMergeNode in="SourceGraphic"/>
      </feMerge>
    </filter>
  </defs>

  <rect x="0" y="0" width="1200" height="420" fill="url(#bg-trap)"/>
  <rect x="42" y="44" width="1116" height="332" rx="16" fill="#17070C" stroke="#7F1D1D" stroke-opacity="0.62"/>

  <g stroke="#7F1D1D" stroke-opacity="0.4">
    <line x1="80" y1="84" x2="1080" y2="84"/>
    <line x1="80" y1="132" x2="1080" y2="132"/>
    <line x1="80" y1="180" x2="1080" y2="180"/>
    <line x1="80" y1="228" x2="1080" y2="228"/>
    <line x1="80" y1="276" x2="1080" y2="276"/>
  </g>

  <g stroke="#7F1D1D" stroke-opacity="0.3">
    <line x1="80" y1="72" x2="80" y2="320"/>
    <line x1="170" y1="72" x2="170" y2="320"/>
    <line x1="280" y1="72" x2="280" y2="320"/>
    <line x1="390" y1="72" x2="390" y2="320"/>
    <line x1="500" y1="72" x2="500" y2="320"/>
    <line x1="610" y1="72" x2="610" y2="320"/>
    <line x1="720" y1="72" x2="720" y2="320"/>
    <line x1="830" y1="72" x2="830" y2="320"/>
    <line x1="1040" y1="72" x2="1040" y2="320"/>
  </g>

  <line x1="80" y1="180" x2="1080" y2="180" stroke="#FCA5A5" stroke-opacity="0.65" stroke-dasharray="6 6"/>

  <polyline
    points="80,126 170,110 260,138 350,186 440,214 530,222 620,210 710,194 800,170 890,146 980,130 1070,162"
    fill="none"
    stroke="url(#line-trap)"
    stroke-width="6"
    stroke-linecap="round"
    stroke-linejoin="round"
    filter="url(#glow-trap)"
  />

  <circle cx="80" cy="126" r="7" fill="#EF4444" stroke="#FECACA" stroke-width="1.5"/>
  <circle cx="830" cy="146" r="7" fill="#EF4444" stroke="#FECACA" stroke-width="1.5"/>

  <text x="98" y="116" fill="#FECACA" font-size="14" font-weight="700">60Hz +5.0dB</text>
  <text x="848" y="136" fill="#FECACA" font-size="14" font-weight="700">8kHz +3.5dB</text>

  <text x="84" y="30" fill="#F87171" font-size="24" font-weight="800">TRAP EQ PROFILE</text>
  <text x="84" y="52" fill="#FECACA" font-size="14">Sub Weight + Snap</text>

  <g fill="#F87171" font-size="12">
    <text x="18" y="88">+6dB</text>
    <text x="18" y="136">+3dB</text>
    <text x="26" y="184">0dB</text>
    <text x="18" y="232">-3dB</text>
    <text x="18" y="280">-6dB</text>
  </g>

  <g fill="#F87171" font-size="12">
    <text x="72" y="342">60</text>
    <text x="161" y="342">120</text>
    <text x="272" y="342">250</text>
    <text x="384" y="342">500</text>
    <text x="492" y="342">1k</text>
    <text x="603" y="342">2k</text>
    <text x="714" y="342">4k</text>
    <text x="824" y="342">8k</text>
    <text x="1028" y="342">16k</text>
  </g>
</svg>
